<svg class="svg-icon" style="width: 1em; height: 1em;vertical-align: middle;fill: currentColor;overflow: hidden;" viewBox="0 0 1024 1024" version="1.1" xmlns="http://www.w3.org/2000/svg"><path d="M682.821818 288.581818H447.767273c-18.618182 0-33.512727-14.894545-33.512728-33.512727V180.130909c0-18.618182 14.894545-33.512727 33.512728-33.512727h235.52c18.618182 0 33.512727 14.894545 33.512727 33.512727v74.938182c0 18.618182-15.36 33.512727-33.978182 33.512727z" fill="#BBEBA1" /><path d="M802.909091 958.836364H327.68c-30.72 0-55.854545-25.134545-55.854545-55.854546V262.981818c0-30.72 25.134545-55.854545 55.854545-55.854545h475.229091c30.72 0 55.854545 25.134545 55.854545 55.854545V902.981818c0 30.72-25.134545 55.854545-55.854545 55.854546z" fill="#BBEBA1" /><path d="M428.218182 800.581818H302.545455c-13.032727 0-23.272727-10.24-23.272728-23.272727s10.24-23.272727 23.272728-23.272727h125.672727c13.032727 0 23.272727 10.24 23.272727 23.272727s-10.705455 23.272727-23.272727 23.272727zM428.218182 657.221818H302.545455c-13.032727 0-23.272727-10.24-23.272728-23.272727s10.24-23.272727 23.272728-23.272727h125.672727c13.032727 0 23.272727 10.24 23.272727 23.272727s-10.705455 23.272727-23.272727 23.272727zM670.254545 371.432727H302.545455c-13.032727 0-23.272727-10.24-23.272728-23.272727s10.24-23.272727 23.272728-23.272727h367.70909c13.032727 0 23.272727 10.24 23.272728 23.272727s-10.705455 23.272727-23.272728 23.272727zM670.254545 514.327273H302.545455c-13.032727 0-23.272727-10.24-23.272728-23.272728s10.24-23.272727 23.272728-23.272727h367.70909c13.032727 0 23.272727 10.24 23.272728 23.272727s-10.705455 23.272727-23.272728 23.272728z" fill="#353E43" /><path d="M728.436364 921.6h-474.763637c-43.752727 0-79.127273-35.374545-79.127272-79.127273V209.454545c0-43.752727 35.374545-79.127273 79.127272-79.127272h79.127273c13.032727 0 23.272727 10.24 23.272727 23.272727s-10.24 23.272727-23.272727 23.272727h-79.127273c-18.152727 0-32.581818 14.429091-32.581818 32.581818v633.018182c0 18.152727 14.429091 32.581818 32.581818 32.581818h474.763637c18.152727 0 32.581818-14.429091 32.581818-32.581818V209.454545c0-18.152727-14.429091-32.581818-32.581818-32.581818H646.981818c-13.032727 0-23.272727-10.24-23.272727-23.272727s10.24-23.272727 23.272727-23.272727h81.454546c43.752727 0 79.127273 35.374545 79.127272 79.127272v633.018182c0 43.752727-35.374545 79.127273-79.127272 79.127273z" fill="#353E43" /><path d="M608.814545 246.690909H373.294545C342.109091 246.690909 316.509091 221.090909 316.509091 189.905455V114.967273c0-31.185455 25.6-56.785455 56.785454-56.785455h235.52c31.185455 0 56.785455 25.6 56.785455 56.785455v74.938182c0 31.185455-25.6 56.785455-56.785455 56.785454zM373.294545 104.727273c-5.585455 0-10.24 4.654545-10.24 10.24v74.938182c0 5.585455 4.654545 10.24 10.24 10.24h235.52c5.585455 0 10.24-4.654545 10.24-10.24V114.967273c0-5.585455-4.654545-10.24-10.24-10.24H373.294545z" fill="#353E43" /><path d="M577.629091 842.007273v-21.410909c-13.963636-1.861818-23.738182-5.12-32.581818-9.309091-8.843636-4.654545-16.290909-11.636364-22.807273-21.876364-6.516364-10.24-10.24-22.341818-11.170909-37.236364l28.392727-5.12c2.327273 14.894545 6.050909 26.065455 11.636364 33.047273 7.912727 9.774545 15.36 12.101818 26.530909 13.032727V707.490909c-11.636364-2.327273-21.410909-6.516364-33.512727-13.498182-8.843636-5.12-15.825455-12.101818-20.48-20.945454-4.654545-8.843636-7.447273-19.083636-7.447273-30.254546 0-20.014545 6.981818-36.305455 21.410909-48.407272 9.309091-8.378182 21.410909-14.894545 40.029091-16.756364v-16.756364h23.272727v16.756364c16.290909 1.396364 24.669091 7.447273 33.978182 15.825454 12.101818 10.24 19.549091 24.203636 22.341818 41.89091l-28.858182 4.18909c-1.861818-11.170909-5.12-19.549091-10.24-25.6-2.327273-2.792727-7.447273-9.774545-16.756363-11.636363V684.218182c13.963636 3.723636 18.618182 6.516364 23.272727 8.378182 8.843636 3.723636 15.825455 8.378182 21.410909 13.963636 5.585455 5.585455 9.774545 12.101818 12.567273 19.549091 2.792727 7.447273 4.654545 15.825455 4.654545 24.669091 0 19.549091-6.050909 35.84-18.618182 48.872727s-23.738182 20.014545-43.287272 20.945455v21.876363h-23.738182z m0-239.243637c-10.705455 1.861818-17.687273 6.050909-23.738182 13.032728-6.516364 6.981818-9.309091 15.36-9.309091 25.134545 0 9.774545 2.792727 17.687273 7.912727 24.203636 5.585455 6.516364 12.567273 11.636364 25.134546 15.36v-77.730909z m23.272727 191.301819c10.705455-1.396364 14.894545-3.258182 22.341818-11.17091 6.050909-6.050909 10.705455-18.152727 10.705455-30.254545 0-10.24-2.327273-18.618182-7.447273-24.669091-5.12-6.050909-10.24-11.636364-25.6-16.756364v82.85091z m0 0" fill="#353E43" /></svg>